<svg width="68" height="68" viewBox="0 0 68 68" fill="none" xmlns="http://www.w3.org/2000/svg">
<g filter="url(#filter0_d_17_442)">
<circle cx="34" cy="33" r="31" stroke="white" stroke-opacity="0.87" stroke-width="2" shape-rendering="crispEdges"/>
</g>
<path d="M26.8303 33.4269C26.8303 33.08 26.9524 32.7473 27.1699 32.502L37.0074 21.4032C37.2248 21.1579 37.5197 21.0201 37.8271 21.0201C38.1346 21.0201 38.4295 21.1579 38.6469 21.4032C38.8644 21.6485 38.9865 21.9812 38.9865 22.3281C38.9865 22.675 38.8644 23.0077 38.6469 23.253L29.3304 33.365L38.6469 43.6009C38.8644 43.8462 38.9865 44.1789 38.9865 44.5258C38.9865 44.8727 38.8644 45.2054 38.6469 45.4507C38.4295 45.696 38.1346 45.8338 37.8271 45.8338C37.5197 45.8338 37.2248 45.696 37.0074 45.4507L27.1699 34.3518C26.9524 34.1065 26.8303 33.7738 26.8303 33.4269Z" fill="white"/>
<defs>
<filter id="filter0_d_17_442" x="0" y="0" width="68" height="68" filterUnits="userSpaceOnUse" color-interpolation-filters="sRGB">
<feFlood flood-opacity="0" result="BackgroundImageFix"/>
<feColorMatrix in="SourceAlpha" type="matrix" values="0 0 0 0 0 0 0 0 0 0 0 0 0 0 0 0 0 0 127 0" result="hardAlpha"/>
<feOffset dy="1"/>
<feGaussianBlur stdDeviation="1"/>
<feComposite in2="hardAlpha" operator="out"/>
<feColorMatrix type="matrix" values="0 0 0 0 0 0 0 0 0 0 0 0 0 0 0 0 0 0 0.25 0"/>
<feBlend mode="normal" in2="BackgroundImageFix" result="effect1_dropShadow_17_442"/>
<feBlend mode="normal" in="SourceGraphic" in2="effect1_dropShadow_17_442" result="shape"/>
</filter>
</defs>
</svg>
